# xmcd
#
# Track frame offsets:
#	150
#	10650
#	19907
#	30260
#	40760
#	52542
#	63472
#	72130
#	84255
#	93795
#	105697
#	115997
#	126845
#	141917
#	155847
#	169272
#	181872
#	199715
#	214960
#	226752
#
# Disc length: 3208 seconds
#
# Revision: 0
# Processed by: cddbd v1.5.2PL0 Copyright (c) Steve Scherf et al.
# Submitted via: audiograbber 1.83.01
#
DISCID=fd0c8614
DTITLE=Kenny Rogers - Through The Years: A Retrospective [CD 1) - The Vintage Y
DTITLE=ears
DYEAR=1998
DGENRE=Country
TTITLE0=The Scholars - The Poor Little Doggie
TTITLE1=The Scholars - Beloved
TTITLE2=Kenny Rogers - That Crazy Feeling
TTITLE3=Kenny Rogers - We'll Always Have Each Other
TTITLE4=Kenny Rogers - For You Alone
TTITLE5=Kenny Rogers - I've Got A Lot To Learn
TTITLE6=Kenny Rogers - Jole Blon
TTITLE7=Kenny Rogers - Lonely
TTITLE8=The Bobby Doyle Three - Don't Feel Rained On
TTITLE9=The Bobby Doyle Three - Fly Me To The Moon (In Other Words)
TTITLE10=The Bobby Doyle Three - My Mammy
TTITLE11=Kenny Rogers - Here's That Rainy Day
TTITLE12=Kenny Rogers and The First Edition - Just Dropped In (To See What Condit
TTITLE12=ion My Condition Was In)
TTITLE13=Kenny Rogers and The First Edition - But You Know I Love You
TTITLE14=Kenny Rogers and The First Edition - Ruby, Don't Take Your Love To Town
TTITLE15=Kenny Rogers and The First Edition - Reuben James
TTITLE16=Kenny Rogers and The First Edition - Something's Burning
TTITLE17=Kenny Rogers and The First Edition - Tell It All Brother
TTITLE18=Kenny Rogers and The First Edition - Someone Who Cares
TTITLE19=Kenny Rogers and The First Edition - Today I Started Loving You Again
EXTD=
EXTT0=
EXTT1=
EXTT2=
EXTT3=
EXTT4=
EXTT5=
EXTT6=
EXTT7=
EXTT8=
EXTT9=
EXTT10=
EXTT11=
EXTT12=
EXTT13=
EXTT14=
EXTT15=
EXTT16=
EXTT17=
EXTT18=
EXTT19=
PLAYORDER=
